<?xml version="1.0" encoding="utf-8"?>
<!-- Generator: Adobe Illustrator 18.0.0, SVG Export Plug-In . SVG Version: 6.00 Build 0)  -->
<!DOCTYPE svg PUBLIC "-//W3C//DTD SVG 1.1//EN" "http://www.w3.org/Graphics/SVG/1.1/DTD/svg11.dtd">
<svg version="1.1" id="图层_1" xmlns="http://www.w3.org/2000/svg" xmlns:xlink="http://www.w3.org/1999/xlink" x="0px" y="0px"
	 viewBox="0 0 250 250" enable-background="new 0 0 250 250" xml:space="preserve">
<path fill="#1D1D1B" d="M194.6,157.5c-3.1-8.6-10.4-15-19.7-16c-5.8-0.6-11.6,0.9-16.3,3.9c0.4-5.8-1.8-11.8-6.9-15.5
	c-7.9-5.6-18.7-3.2-24.4,4c-1.7-7.5-6.1-14.8-11.5-19.5c-12-10.5-29.7-6.3-35.6,6.8c-1.4-3.4-3.4-6.5-6.6-8.5
	c-6-3.7-14.2-2.2-20.2,0.8c-10.5,5.2-16.3,18.5-9.6,28.1c-0.2-0.1-0.3-0.1-0.5-0.2c-21.2-7.7-36,16.8-31.5,34.8
	c2.4,9.7,9.6,18.3,19.8,20.4c7.7,1.5,15.6-0.5,21.1-5.7c-0.2,7,2.1,14.1,9.2,17c6.1,2.5,12.4,0.6,16.5-3.8
	c3.1,10.4,11.6,19.1,22.8,20.5c11.8,1.5,23.7-6.1,27.1-17.2c3.2,7,11.4,10.6,19.3,9.3c10.7-1.8,19.5-11.6,18.4-22.6
	c-0.1-1-0.3-1.9-0.5-2.9C184.3,193.8,201.3,176.3,194.6,157.5z M163.6,186.8c-0.1,0-0.1,0-0.2,0c-3.5-5.7-9.9-9.3-17.1-8.3
	c-9,1.3-16.4,12.6-8.7,20c8.1,7.8,21-3.9,12.3-11.4c-2-1.7-4.8,1-2.9,2.8c5.6,5.4-6,10.2-8,2.8c-1.2-4.5,2.4-8.6,6.6-9.8
	c8.4-2.4,16,4.7,16.3,12.7c0.7,17.7-26.5,24.7-32.7,7.2c-0.3-0.9-1.6-1-2.1-0.4c-1-0.3-2.2,0.1-2.4,1.5
	c-1.8,10.2-11.8,17.6-22.3,16.8c-11.2-0.9-19.7-11.2-20.9-21.7c-0.3-2.4-3.2-2.8-4.2-0.6c-2.6,6.2-10.3,8.6-16,4.7
	c-5.3-3.6-5.2-10.3-5.6-15.9c0.1-0.5,0-0.9-0.2-1.3c-0.2-0.4-0.5-0.7-1-0.8c-0.9-0.4-2-0.3-2.7,0.7c-9.1,12.8-27.8,7.7-34.1-4.8
	c-6.9-13.9-0.3-35.5,17.4-36.6c8.1-0.5,17.3,5.5,19.7,13.3c2.6,8.3-2.1,16.9-10.2,19.7c-7.8,2.7-19-0.9-17.9-10.6
	c0.5-4.2,3-8.4,6.5-10.7c3.9-2.5,8.4-1,10,3.3c0.6,1.7,0.5,3.3-0.3,5c-4,3.2-6.4,2.7-7.3-1.7c0-1-1.7-1.3-1.9-0.3
	c-1.7,8.1,9.6,9.1,12.4,2.3c3.2-7.7-5.3-15.8-12.9-12.6c-7.5,3.1-12.4,13.3-9.3,20.9c3.2,8,13.4,10.4,21.1,8.1
	c8.6-2.6,14.6-10.4,14.4-19.4c-0.2-7.4-4.8-13.8-11-17.7c0-0.3-0.1-0.6-0.3-0.8c-7.4-9-2.4-21.4,7.3-26.1c5-2.4,11.9-3.7,16.6-0.1
	c3.9,3,5.1,8.4,6.2,12.9c0.6,2.4,4.2,1.8,4.3-0.6c0.8-15.4,18.7-21.8,30.1-11.9c8.6,7.5,15.4,23,7.6,33.1
	c-7.6,9.8-30.5,14.4-32.9-2.1c-1-6.7,4.3-13.6,11.3-14.1c4.7-0.3,8.7,2.8,8.4,7.6c-0.3,4.5-5.9,7.4-8.3,2.4c-1-2-4.3-0.6-3.6,1.5
	c1.7,5.6,9,7.2,13.3,3.2c4.6-4.2,3.7-12-0.6-16c-5.5-5.2-14.3-3.4-19.4,1.3c-5.2,4.7-6.9,12.1-4.3,18.6c6.5,16,28.9,12.1,38.6,1.5
	c4.4-4.9,5.8-11,5.2-17.2c0.2-0.1,0.3-0.2,0.4-0.4c4.5-6,14.2-8.3,20.6-3.8c5.5,3.8,7.1,11.7,4,17.5c-0.6,0.8-1.2,1.7-1.8,2.6
	c-1.2,2,1.8,4.5,3.4,2.6c0.1-0.1,0.2-0.3,0.3-0.4c0,0,0,0,0,0c0,0,0.1-0.1,0.1-0.1c0.4-0.5,0.8-1.1,1.2-1.7
	c4.1-5.4,10.8-8.3,17.6-7.9c8.3,0.5,14.7,6.4,17.1,14C196,176.4,179.9,190.3,163.6,186.8z"/>
<path fill="#1D1D1B" d="M241.9,215.9c-0.9-2.7-3.2-4.7-6-5c-1.7-0.2-3.5,0.3-4.9,1.2c0.1-1.8-0.6-3.7-2.1-4.9
	c-2.4-1.8-5.7-1-7.4,1.3c-0.5-2.4-1.9-4.7-3.5-6.2c-3.6-3.3-9-2-10.8,2.1c-0.4-1.1-1-2.1-2-2.7c-1.8-1.2-4.3-0.7-6.1,0.3
	c-3.2,1.7-4.9,5.8-2.9,8.9c0,0-0.1,0-0.1-0.1c-6.4-2.4-10.9,5.3-9.5,11c0.7,3.1,2.9,5.8,6,6.5c2.3,0.5,4.7-0.2,6.4-1.8
	c-0.1,2.2,0.6,4.5,2.8,5.4c1.9,0.8,3.7,0.2,5-1.2c0.9,3.3,3.5,6.1,6.9,6.5c3.6,0.5,7.2-1.9,8.2-5.4c1,2.2,3.4,3.4,5.8,2.9
	c3.2-0.6,5.9-3.7,5.6-7.2c0-0.3-0.1-0.6-0.2-0.9C238.8,227.4,244,221.8,241.9,215.9z M232.6,225.1
	C232.6,225.1,232.5,225.1,232.6,225.1c-1.1-1.8-3.1-3-5.2-2.6c-2.7,0.4-5,4-2.6,6.3c2.4,2.5,6.4-1.2,3.7-3.6
	c-0.6-0.5-1.4,0.3-0.9,0.9c1.7,1.7-1.8,3.2-2.4,0.9c-0.4-1.4,0.7-2.7,2-3.1c2.5-0.8,4.8,1.5,4.9,4c0.2,5.6-8,7.8-9.9,2.3
	c-0.1-0.3-0.5-0.3-0.6-0.1c-0.3-0.1-0.7,0-0.7,0.5c-0.6,3.2-3.6,5.6-6.7,5.3c-3.4-0.3-6-3.5-6.3-6.9c-0.1-0.8-1-0.9-1.3-0.2
	c-0.8,2-3.1,2.7-4.8,1.5c-1.6-1.1-1.6-3.3-1.7-5c0-0.1,0-0.3-0.1-0.4c-0.1-0.1-0.2-0.2-0.3-0.3c-0.3-0.1-0.6-0.1-0.8,0.2
	c-2.7,4.1-8.4,2.4-10.3-1.5c-2.1-4.4-0.1-11.2,5.3-11.6c2.5-0.2,5.2,1.7,6,4.2c0.8,2.6-0.6,5.3-3.1,6.2c-2.4,0.9-5.7-0.3-5.4-3.4
	c0.1-1.3,0.9-2.6,2-3.4c1.2-0.8,2.6-0.3,3,1.1c0.2,0.5,0.2,1.1-0.1,1.6c-1.2,1-1.9,0.8-2.2-0.5c0-0.3-0.5-0.4-0.6-0.1
	c-0.5,2.5,2.9,2.9,3.8,0.7c1-2.4-1.6-5-3.9-4c-2.3,1-3.7,4.2-2.8,6.6c1,2.5,4,3.3,6.4,2.6c2.6-0.8,4.4-3.3,4.3-6.1
	c-0.1-2.3-1.4-4.4-3.3-5.6c0-0.1,0-0.2-0.1-0.3c-2.2-2.8-0.7-6.8,2.2-8.2c1.5-0.8,3.6-1.2,5,0c1.2,0.9,1.6,2.7,1.9,4.1
	c0.2,0.8,1.3,0.6,1.3-0.2c0.2-4.9,5.6-6.9,9.1-3.8c2.6,2.4,4.7,7.3,2.3,10.5c-2.3,3.1-9.2,4.6-10-0.7c-0.3-2.1,1.3-4.3,3.4-4.4
	c1.4-0.1,2.6,0.9,2.5,2.4c-0.1,1.4-1.8,2.3-2.5,0.8c-0.3-0.6-1.3-0.2-1.1,0.5c0.5,1.8,2.7,2.3,4,1c1.4-1.3,1.1-3.8-0.2-5.1
	c-1.7-1.6-4.3-1.1-5.9,0.4c-1.6,1.5-2.1,3.8-1.3,5.9c2,5.1,8.7,3.8,11.7,0.5c1.3-1.5,1.8-3.5,1.6-5.4c0,0,0.1-0.1,0.1-0.1
	c1.4-1.9,4.3-2.6,6.2-1.2c1.7,1.2,2.1,3.7,1.2,5.5c-0.2,0.3-0.4,0.5-0.5,0.8c-0.4,0.6,0.5,1.4,1,0.8c0,0,0.1-0.1,0.1-0.1
	c0,0,0,0,0,0c0,0,0,0,0,0c0.1-0.2,0.2-0.4,0.3-0.5c1.2-1.7,3.3-2.6,5.3-2.5c2.5,0.2,4.4,2,5.2,4.4
	C242.3,221.8,237.5,226.2,232.6,225.1z"/>
</svg>
