<?xml version="1.0" encoding="utf-8"?>
<!-- Generator: Adobe Illustrator 18.0.0, SVG Export Plug-In . SVG Version: 6.00 Build 0)  -->
<!DOCTYPE svg PUBLIC "-//W3C//DTD SVG 1.1//EN" "http://www.w3.org/Graphics/SVG/1.1/DTD/svg11.dtd">
<svg version="1.1" id="图层_1" xmlns="http://www.w3.org/2000/svg" xmlns:xlink="http://www.w3.org/1999/xlink" x="0px" y="0px"
	 viewBox="0 0 550 450" enable-background="new 0 0 550 450" xml:space="preserve">
<path fill="none" stroke="#3E3A39" stroke-width="2" stroke-miterlimit="10" d="M11,9c0,0-6,45-2,76s-2.6,59-1.8,101S17,264,15,311
	s-7.8,67-7.8,67l14.8,3l-14.8,2c0,0-1.8,46,0,54c0,0,114.8,9,207.8,0s226,17,313,4c0,0,20-184,0-253l-17-3l19-3c0,0-10.2-97,6.9-169
	c0,0-113-8.7-220-3.7S32,3,11,9z"/>
</svg>
