<?xml version="1.0" encoding="utf-8"?>
<!-- Generator: Adobe Illustrator 18.0.0, SVG Export Plug-In . SVG Version: 6.00 Build 0)  -->
<!DOCTYPE svg PUBLIC "-//W3C//DTD SVG 1.1//EN" "http://www.w3.org/Graphics/SVG/1.1/DTD/svg11.dtd">
<svg version="1.1" id="图层_1" xmlns="http://www.w3.org/2000/svg" xmlns:xlink="http://www.w3.org/1999/xlink" x="0px" y="0px"
	 viewBox="0 0 560 1000" enable-background="new 0 0 560 1000" xml:space="preserve">
<path opacity="0.42" fill="#FFFFFF" stroke="#262600" stroke-width="3" stroke-miterlimit="10" d="M15.6,19.8
	c0,3.2,9.5,130.5,7.9,177.3s-7.9,125.7-7.9,169.2s5.1,88.6,8.1,114.4s-4.8,72.5-4,91.9l15,6.4l-19,8.1c0,0-4.8,88.6,0,117.6
	s13.7,117.6,8.4,167.6s-12.7,90.2-10.6,103c0,0,35.4,8.1,130.4,0s188.4,7.2,215.4,3.6c26.9-3.6,104.5,7.9,145.7,0.6
	c0,0,20.6-76.7,0-184.6l-22.2-3.2l23.8-6.4c0,0,23.8-61.2,14.3-145s-0.3-122.5,2.2-149.9s-0.7-111.2-7-128.9l-20.6-3.2l20.6-4.8
	c0,0,1.6-27.4,0-33.8l-14.3-1.6l14.3-8.1c0,0,11-74.1,7.9-132.1S508.2,84.4,517.7,20c0,0-134.6,3.2-186.9,0S145.5,15.2,117,20
	S15.6,19.8,15.6,19.8z"/>
<path opacity="0.8" fill="#009933" stroke="#0C6B17" stroke-width="3" stroke-miterlimit="10" d="M516.2,26.1c0,0-13.9,4-17.9,13.2
	s-3.5,15.3-6.6,19.1c-3.2,3.9-7.8,1.9-7.8,1.9s16.5,3.5,31.3,1.6c11.3-1.4,17.9-19.4,18.2-22.3C533.8,36.7,539,20,539,20
	C536.5,23.3,529.2,22.4,516.2,26.1z"/>
<path opacity="0.8" fill="#009933" stroke="#0C6B17" stroke-width="3" stroke-miterlimit="10" d="M527.1,98.5c0,0-2-9.4-7.9-12.5
	c-5.9-3-10-3-12.4-5.3c-2.4-2.3-0.9-5.3-0.9-5.3s-3.1,10.8-2.5,20.7c0.4,7.6,12,12.8,14,13.1c1.9,0.3,12.8,4.5,12.8,4.5
	C528,112.1,529,107.3,527.1,98.5z"/>
</svg>
